<svg xmlns="http://www.w3.org/2000/svg" width="201.604" height="28.975" viewBox="0 0 201.604 28.975">
  <g id="Layer_2" data-name="Layer 2" transform="translate(-5.187 -0.25)">
    <g id="Layer_1" data-name="Layer 1" transform="translate(5.938 1)">
      <path id="Path_770" data-name="Path 770" d="M66.248,24.9H62.572a.752.752,0,0,1-.752-.752V9.6a.752.752,0,0,1,.752-.752h3.677a8.015,8.015,0,0,1,0,16.029ZM63.3,23.451h2.947a6.579,6.579,0,1,0,0-13.15H63.3Z" transform="translate(-16.156 -2.948)" fill="#37b8ea"/>
      <path id="Path_771" data-name="Path 771" d="M86.089,26.155A5.824,5.824,0,0,1,80.3,20.027a6.466,6.466,0,0,1,1.5-4.316A5.428,5.428,0,0,1,85.938,13.9c3.24,0,5.579,2.564,5.579,6.128a.752.752,0,0,1-.752.752H81.743A4.368,4.368,0,0,0,86.089,24.7a4.113,4.113,0,0,0,3.631-2.045.752.752,0,0,1,1.248.752A5.639,5.639,0,0,1,86.089,26.155ZM81.8,19.3h8.27a4.108,4.108,0,0,0-4.083-3.97A4.248,4.248,0,0,0,81.8,19.3Z" transform="translate(-20.741 -4.201)" fill="#37b8ea"/>
      <path id="Path_772" data-name="Path 772" d="M101.024,26.158a3.88,3.88,0,0,1-3.677-2.09.725.725,0,1,1,1.316-.609,2.444,2.444,0,0,0,2.361,1.248,2.273,2.273,0,0,0,2.541-2.09c0-1.338-.812-1.677-2.7-2.158-1.586-.406-3.586-.91-3.586-3.248a3.24,3.24,0,0,1,.977-2.256,3.849,3.849,0,0,1,2.767-1.038,3.624,3.624,0,0,1,3.428,1.925.7.7,0,0,1-.338.955.752.752,0,0,1-.977-.338,2.256,2.256,0,0,0-2.113-1.113,2.053,2.053,0,0,0-2.293,1.88c0,1.113.752,1.413,2.5,1.842,1.594.406,3.759.955,3.759,3.564a3.489,3.489,0,0,1-1.045,2.428,4.128,4.128,0,0,1-2.917,1.1Z" transform="translate(-24.955 -4.204)" fill="#37b8ea"/>
      <path id="Path_773" data-name="Path 773" d="M120.974,20.027a5.837,5.837,0,0,1-5.789,6.128,5.586,5.586,0,0,1-4.361-2v7.519a.752.752,0,1,1-1.5,0V14.6a.752.752,0,0,1,.752-.7.707.707,0,0,1,.752.7v1.271a5.661,5.661,0,0,1,4.361-1.97A5.837,5.837,0,0,1,120.974,20.027Zm-1.429,0a4.373,4.373,0,1,0-8.721,0,4.368,4.368,0,1,0,8.721,0Z" transform="translate(-27.943 -4.201)" fill="#37b8ea"/>
      <path id="Path_774" data-name="Path 774" d="M137.924,14.6V25.426a.752.752,0,1,1-1.451,0V24.155a5.579,5.579,0,0,1-4.383,2,5.837,5.837,0,0,1-5.789-6.128,5.837,5.837,0,0,1,5.789-6.128,5.646,5.646,0,0,1,4.361,1.97V14.6a.752.752,0,0,1,1.451,0Zm-1.451,5.428a4.359,4.359,0,1,0-8.691,0,4.357,4.357,0,1,0,8.691,0Z" transform="translate(-32.156 -4.201)" fill="#37b8ea"/>
      <path id="Path_775" data-name="Path 775" d="M150.083,23.1a.752.752,0,0,1,.09,1.023,2.94,2.94,0,0,1-5.173-1.9v-7.9h-.662a.752.752,0,0,1,0-1.429H145V10.572a.752.752,0,1,1,1.5,0v2.316h2.564a.752.752,0,1,1,0,1.429H146.5v7.9a1.5,1.5,0,0,0,1.5,1.5,1.383,1.383,0,0,0,1.105-.526A.752.752,0,0,1,150.083,23.1Z" transform="translate(-36.504 -3.189)" fill="#37b8ea"/>
      <path id="Path_776" data-name="Path 776" d="M160.089,26.155a5.837,5.837,0,0,1-5.789-6.128,5.837,5.837,0,0,1,5.789-6.128,5.564,5.564,0,0,1,4.676,2.406.723.723,0,1,1-1.18.835,4.165,4.165,0,0,0-3.5-1.812,4.448,4.448,0,0,0-4.361,4.7,4.443,4.443,0,0,0,4.361,4.677,4.15,4.15,0,0,0,3.5-1.8.752.752,0,1,1,1.18.842,5.6,5.6,0,0,1-4.677,2.406Z" transform="translate(-39.104 -4.201)" fill="#37b8ea"/>
      <path id="Path_777" data-name="Path 777" d="M180.1,17.865v6.308a.752.752,0,1,1-1.5,0V17.865a3.519,3.519,0,1,0-7.015,0v6.308a.752.752,0,0,1-1.5,0V9.6a.752.752,0,0,1,1.5,0v4.511a4.842,4.842,0,0,1,3.519-1.451,4.977,4.977,0,0,1,5,5.2Z" transform="translate(-43.02 -2.948)" fill="#37b8ea"/>
      <path id="Path_778" data-name="Path 778" d="M202.831,24.909a8.015,8.015,0,1,1,6.015-13.3.752.752,0,0,1-.068,1.023.7.7,0,0,1-1.023-.075,6.579,6.579,0,1,0,0,8.654.725.725,0,1,1,1.09.955A8.03,8.03,0,0,1,202.831,24.909Z" transform="translate(-49.156 -2.955)" fill="#37b8ea"/>
      <path id="Path_779" data-name="Path 779" d="M217.162,9.537V24.108a.752.752,0,1,1-1.451,0V9.537a.752.752,0,1,1,1.451,0Z" transform="translate(-54.337 -2.883)" fill="#37b8ea"/>
      <path id="Path_780" data-name="Path 780" d="M225.748,26.155a6.128,6.128,0,1,1,6.128-6.128A6.128,6.128,0,0,1,225.748,26.155Zm0-10.827a4.692,4.692,0,1,0,4.684,4.7,4.692,4.692,0,0,0-4.684-4.7Z" transform="translate(-55.314 -4.201)" fill="#37b8ea"/>
      <path id="Path_781" data-name="Path 781" d="M247.664,14.642V25.469a.752.752,0,1,1-1.459,0v-.812A4.947,4.947,0,0,1,242.6,26.2a4.654,4.654,0,0,1-3.541-1.564,5.556,5.556,0,0,1-1.316-3.677V14.642a.752.752,0,0,1,1.451,0v6.316a3.465,3.465,0,0,0,3.406,3.759,3.654,3.654,0,0,0,3.609-3.759V14.642a.752.752,0,0,1,1.459,0Z" transform="translate(-59.81 -4.244)" fill="#37b8ea"/>
      <path id="Path_782" data-name="Path 782" d="M264.351,9.524V24.1a.752.752,0,1,1-1.428,0V22.825a5.586,5.586,0,0,1-4.361,2A5.842,5.842,0,0,1,252.75,18.7a5.842,5.842,0,0,1,5.812-6.128,5.661,5.661,0,0,1,4.361,1.97V9.524a.752.752,0,1,1,1.428,0ZM262.923,18.7a4.373,4.373,0,1,0-8.721,0,4.368,4.368,0,1,0,8.721,0Z" transform="translate(-63.535 -2.87)" fill="#37b8ea"/>
      <path id="Path_783" data-name="Path 783" d="M10.75,6.17l-.06.068a10.669,10.669,0,0,0-.714.94,10.97,10.97,0,0,0-1.233,2.4l-.286.752-.82.053a7.113,7.113,0,0,0,.474,14.2H21.088" transform="translate(-1.084 -2.283)" fill="none" stroke="#3695d1" stroke-linecap="round" stroke-miterlimit="10" stroke-width="1.5"/>
      <line id="Line_60" data-name="Line 60" x2="3.18" y2="3.18" transform="translate(17.628 19.15)" fill="none" stroke="#3695d1" stroke-linecap="round" stroke-miterlimit="10" stroke-width="1.5"/>
      <line id="Line_61" data-name="Line 61" y1="3.18" x2="3.18" transform="translate(17.628 22.33)" fill="none" stroke="#3695d1" stroke-linecap="round" stroke-miterlimit="10" stroke-width="1.5"/>
      <path id="Path_784" data-name="Path 784" d="M30.235,23.33h3.278A7.128,7.128,0,0,0,33.995,9.1l-.812-.053L32.9,8.293a11.09,11.09,0,0,0-1.271-2.406A11.21,11.21,0,0,0,29.19,3.3a11.022,11.022,0,0,0-3.15-1.7A11.269,11.269,0,0,0,13.965,4.8h0l-.045.075-.06.068" transform="translate(-4.254 -1)" fill="none" stroke="#37b8ea" stroke-linecap="round" stroke-miterlimit="10" stroke-width="1.5"/>
    </g>
  </g>
</svg>
