 <svg xmlns="http://www.w3.org/2000/svg" width="19.936" height="17.763" viewBox="0 0 19.936 17.763">
                     <g id="Group_2064" data-name="Group 2064" transform="translate(-28 -26)">
                        <circle id="Ellipse_309" data-name="Ellipse 309" cx="1.789" cy="1.789" r="1.789" transform="translate(28 26)" fill="#b9b9b9"/>
                        <circle id="Ellipse_310" data-name="Ellipse 310" cx="1.789" cy="1.789" r="1.789" transform="translate(33.452 26)" fill="#b9b9b9"/>
                        <circle id="Ellipse_311" data-name="Ellipse 311" cx="1.789" cy="1.789" r="1.789" transform="translate(38.905 26)" fill="#b9b9b9"/>                            <circle id="Ellipse_312" data-name="Ellipse 312" cx="1.789" cy="1.789" r="1.789" transform="translate(44.357 26)" fill="#b9b9b9"/>
                        <circle id="Ellipse_313" data-name="Ellipse 313" cx="1.789" cy="1.789" r="1.789" transform="translate(28 33.092)" fill="#b9b9b9"/>
                        <circle id="Ellipse_314" data-name="Ellipse 314" cx="1.789" cy="1.789" r="1.789" transform="translate(33.452 33.092)" fill="#b9b9b9"/>
                        <circle id="Ellipse_315" data-name="Ellipse 315" cx="1.789" cy="1.789" r="1.789" transform="translate(38.905 33.092)" fill="#b9b9b9"/>
                        <circle id="Ellipse_316" data-name="Ellipse 316" cx="1.789" cy="1.789" r="1.789" transform="translate(44.357 33.092)" fill="#b9b9b9"/>
                        <circle id="Ellipse_317" data-name="Ellipse 317" cx="1.789" cy="1.789" r="1.789" transform="translate(28 40.184)" fill="#b9b9b9"/>
                        <circle id="Ellipse_318" data-name="Ellipse 318" cx="1.789" cy="1.789" r="1.789" transform="translate(33.452 40.184)" fill="#b9b9b9"/>
                        <circle id="Ellipse_319" data-name="Ellipse 319" cx="1.789" cy="1.789" r="1.789" transform="translate(38.905 40.184)" fill="#b9b9b9"/>                            <circle id="Ellipse_320" data-name="Ellipse 320" cx="1.789" cy="1.789" r="1.789" transform="translate(44.357 40.184)" fill="#b9b9b9"/>
                    </g>
                </svg>
