<svg id="search-duotone" xmlns="http://www.w3.org/2000/svg" width="17.911" height="17.914" viewBox="0 0 17.911 17.914">
  <path id="Path_871" data-name="Path 871" d="M7.277,2.8A4.478,4.478,0,1,1,4.11,4.11,4.478,4.478,0,0,1,7.277,2.8m0-2.8a7.277,7.277,0,1,0,7.277,7.277A7.277,7.277,0,0,0,7.277,0Z" opacity="0.4"/>
  <path id="Path_872" data-name="Path 872" d="M341.909,340.922l-.99.99a.836.836,0,0,1-1.186,0l-3.488-3.488a.84.84,0,0,1-.245-.595v-.57L337.259,336h.57a.84.84,0,0,1,.595.245l3.488,3.488a.844.844,0,0,1,0,1.19Z" transform="translate(-324.245 -324.245)"/>
</svg>
